<?xml version="1.0" encoding="iso-8859-1"?>
<!-- Generator: Adobe Illustrator 19.0.0, SVG Export Plug-In . SVG Version: 6.00 Build 0)  -->
<svg version="1.1" id="Layer_1" xmlns="http://www.w3.org/2000/svg" xmlns:xlink="http://www.w3.org/1999/xlink" x="0px" y="0px"
	 viewBox="0 0 512 512" style="enable-background:new 0 0 512 512;" xml:space="preserve">
<path style="fill:#E4EAF6;" d="M459.034,397.241h-52.966c-4.879,0-8.828,3.953-8.828,8.828s3.948,8.828,8.828,8.828h27.556
	c-4.299,4.813-8.785,9.404-13.422,13.796c-5.13,4.858-12.54,6.377-19.065,3.668c-24.963-10.361-65.689-26.292-65.689-26.292H176.552
	c0,0-40.595,15.879-65.571,26.243c-6.567,2.724-13.997,1.137-19.147-3.764C46.185,385.107,17.655,323.84,17.655,256
	c0-38.521,9.397-76.785,27.19-110.655c2.268-4.314,0.604-9.651-3.715-11.918c-4.319-2.263-9.646-0.604-11.923,3.711
	C10.103,173.526,0,214.63,0,256c0,141.16,114.845,256,256,256c75.297,0,145.439-32.458,194.207-89.321v36.355
	c0,4.875,3.948,8.828,8.828,8.828s8.828-3.953,8.828-8.828v-52.966C467.862,401.194,463.91,397.241,459.034,397.241z"/>
<path id="SVGCleanerId_0" style="fill:#E4EAF6;" d="M256,0C180.514,0,110.534,32.335,61.793,89.207V52.966
	c0-4.875-3.948-8.828-8.828-8.828s-8.828,3.953-8.828,8.828v52.966c0,4.875,3.948,8.828,8.828,8.828h52.966
	c4.879,0,8.828-3.953,8.828-8.828c0-4.875-3.948-8.828-8.828-8.828H78.436C123.659,46.433,187.361,17.655,256,17.655
	c131.423,0,238.345,106.922,238.345,238.345c0,38.521-9.397,76.785-27.19,110.655c-2.268,4.314-0.604,9.651,3.715,11.918
	c1.311,0.69,2.716,1.013,4.095,1.013c3.172,0,6.241-1.716,7.828-4.724C501.897,338.474,512,297.37,512,256
	C512,114.84,397.155,0,256,0z"/>
<polygon style="fill:#E6AF78;" points="317.793,344.277 317.793,393.565 256,432.552 194.207,393.565 194.207,344.277 "/>
<path style="fill:#D29B6E;" d="M194.207,344.277v49.288l19.052,12.021c76.623,8.262,104.166-55.425,104.166-55.425l0.067-5.884
	H194.207z"/>
<path style="fill:#D7DEED;" d="M331.797,387.35c-2.81-4.216-8.587-5.206-12.642-2.165L256,432.552l-63.155-47.367
	c-4.054-3.04-9.831-2.051-12.642,2.165l-12.479,18.719l38.719,54.207c2.944,4.12,8.744,4.926,12.698,1.762l28.031-22.424v37.076
	c0,4.875,3.953,8.828,8.828,8.828s8.828-3.953,8.828-8.828v-37.076l28.031,22.424c3.955,3.164,9.754,2.359,12.698-1.762
	l38.719-54.207L331.797,387.35z"/>
<path style="fill:#F0C087;" d="M289.848,373.448l35.43-29.525c6.558-5.464,10.913-13.119,12.262-21.547l20.135-125.839
	c6.866-42.908-26.28-81.778-69.733-81.778H224.06c-43.454,0-76.599,38.87-69.734,81.778l20.135,125.839
	c1.348,8.428,5.705,16.083,12.262,21.547l35.43,29.525c4.759,3.966,10.759,6.138,16.953,6.138h33.79
	C279.09,379.586,285.089,377.415,289.848,373.448z"/>
<path style="fill:#E6AF78;" d="M237.186,234.781c40.69-5.722,75.887-16.968,100.209-26.297c0.026,0.003-4.981-16.759-4.904-16.748
	l-5.87,2.472c0,0-61.793,25.012-132.414,26.483H158.19l16.27,101.686c1.348,8.428,5.705,16.083,12.262,21.547l35.431,29.525
	c4.759,3.966,10.758,6.137,16.952,6.137h8.067l-13.126-39.375c-3-9.001-4.53-18.428-4.53-27.915v-68.815
	C229.517,239.07,232.819,235.394,237.186,234.781z"/>
<path style="fill:#464655;" d="M345.362,298.724c-0.44,1.5-11.5,36.724-78.793,36.724v17.655c81.655,0,95.285-47.707,95.828-49.741
	L345.362,298.724z"/>
<circle style="fill:#5B5D6E;" cx="266.571" cy="344.276" r="8.828"/>
<g>
	<path style="fill:#707487;" d="M163.84,256h-11.363c-4.875,0-8.828,3.953-8.828,8.828v35.31c0,4.875,3.953,8.828,8.828,8.828
		h19.839L163.84,256z"/>
	<path style="fill:#707487;" d="M361.931,256H348.16l-8.474,52.966h22.246c4.875,0,8.828-3.953,8.828-8.828v-35.31
		C370.759,259.953,366.806,256,361.931,256z"/>
</g>
<path style="fill:#5A4146;" d="M194.207,220.69c70.621-1.471,132.414-26.483,132.414-26.483l7.745,54.214
	c0.621,4.349,4.345,7.58,8.739,7.58h5.056l9.514-59.464c6.865-42.908-26.281-81.778-69.735-81.778H224.06
	c-43.454,0-76.599,38.87-69.734,81.778L163.84,256h7.256c3.343,0,6.4-1.889,7.895-4.879L194.207,220.69z"/>
<g>
	<path id="SVGCleanerId_0_1_" style="fill:#E4EAF6;" d="M256,0C180.514,0,110.534,32.335,61.793,89.207V52.966
		c0-4.875-3.948-8.828-8.828-8.828s-8.828,3.953-8.828,8.828v52.966c0,4.875,3.948,8.828,8.828,8.828h52.966
		c4.879,0,8.828-3.953,8.828-8.828c0-4.875-3.948-8.828-8.828-8.828H78.436C123.659,46.433,187.361,17.655,256,17.655
		c131.423,0,238.345,106.922,238.345,238.345c0,38.521-9.397,76.785-27.19,110.655c-2.268,4.314-0.604,9.651,3.715,11.918
		c1.311,0.69,2.716,1.013,4.095,1.013c3.172,0,6.241-1.716,7.828-4.724C501.897,338.474,512,297.37,512,256
		C512,114.84,397.155,0,256,0z"/>
</g>
<g>
</g>
<g>
</g>
<g>
</g>
<g>
</g>
<g>
</g>
<g>
</g>
<g>
</g>
<g>
</g>
<g>
</g>
<g>
</g>
<g>
</g>
<g>
</g>
<g>
</g>
<g>
</g>
<g>
</g>
</svg>
